<svg width="354" height="380" viewBox="0 0 354 380" fill="none" xmlns="http://www.w3.org/2000/svg">
<path d="M451.595 379.379H123.777C91.9765 379.355 61.4178 367.029 38.4985 344.981C15.5792 322.934 2.07647 292.874 0.816938 261.095C-0.442595 229.316 10.6388 198.282 31.7412 174.489C52.8436 150.696 82.3309 135.99 114.03 133.448C118.551 101.525 132.965 71.823 155.245 48.52C177.525 25.217 206.549 9.48617 238.235 3.54067C269.921 -2.40483 302.673 1.73418 331.884 15.3754C361.095 29.0167 385.294 51.4736 401.078 79.5868C430.027 69.5646 461.305 68.3936 490.923 76.2232C520.54 84.0527 547.154 100.528 567.371 123.547C587.587 146.567 600.489 175.087 604.43 205.469C608.372 235.852 603.175 266.721 589.502 294.138C581.479 318.908 565.815 340.499 544.759 355.814C523.703 371.128 498.337 379.378 472.302 379.379H451.595Z" fill="url(#paint0_linear_126_14)"/>
<defs>
<linearGradient id="paint0_linear_126_14" x1="303.216" y1="0.896606" x2="479.015" y2="425.893" gradientUnits="userSpaceOnUse">
<stop stop-color="#DCEAFD"/>
<stop offset="1" stop-color="#DAE7FC"/>
</linearGradient>
</defs>
</svg>
